# xmcd CD database file
#
# Track frame offsets:
#	150
#	18803
#	36347
#	53848
#	72330
#	88354
#	108872
#	130971
#	144589
#	161863
#	179889
#	192702
#
# Disc length: 2769 seconds
#
# Revision: 4
# Processed by: cddbd v1.5.2PL0 Copyright (c) Steve Scherf et al.
# Submitted via: CDex 2.21
#
DISCID=b80acf0c
DTITLE=Miranda Lambert - The Weight of These Wings - CD 1
DYEAR=2016
DGENRE=Country
TTITLE0=Covered Wagon
TTITLE1=Getaway Driver
TTITLE2=Highway Vagabond
TTITLE3=Pink Sunglasses
TTITLE4=Pushin' Time
TTITLE5=Runnin' Just in Case
TTITLE6=Smoking Jacket
TTITLE7=Ugly Lights
TTITLE8=Use My Heart
TTITLE9=Vice
TTITLE10=We Should Be Friends
TTITLE11=You Wouldn't Know Me
EXTD=YEAR: 2016
EXTT0=
EXTT1=
EXTT2=
EXTT3=
EXTT4=
EXTT5=
EXTT6=
EXTT7=
EXTT8=
EXTT9=
EXTT10=
EXTT11=
PLAYORDER=
